HIERARCHY
ROOT Hips
{
	OFFSET 0.00000 0.00000 0.00000
	CHANNELS 6 Xposition Yposition Zposition Zrotation Yrotation Xrotation 
	JOINT LHipJoint
	{
		OFFSET 0 0 0
		CHANNELS 3 Zrotation Yrotation Xrotation
		JOINT LeftUpLeg
		{
			OFFSET 1.58895 -1.83665 0.71753
			CHANNELS 3 Zrotation Yrotation Xrotation
			JOINT LeftLeg
			{
				OFFSET 2.50528 -6.88321 0.00000
				CHANNELS 3 Zrotation Yrotation Xrotation
				JOINT LeftFoot
				{
					OFFSET 2.63244 -7.23257 0.00000
					CHANNELS 3 Zrotation Yrotation Xrotation
					JOINT LeftToeBase
					{
						OFFSET 0.23691 -0.65090 1.72750
						CHANNELS 3 Zrotation Yrotation Xrotation
						End Site
						{
							OFFSET 0.00000 -0.00000 0.92561
						}
					}
				}
			}
		}
	}
	JOINT RHipJoint
	{
		OFFSET 0 0 0
		CHANNELS 3 Zrotation Yrotation Xrotation
		JOINT RightUpLeg
		{
			OFFSET -1.51435 -1.83665 0.71753
			CHANNELS 3 Zrotation Yrotation Xrotation
			JOINT RightLeg
			{
				OFFSET -2.54551 -6.99375 0.00000
				CHANNELS 3 Zrotation Yrotation Xrotation
				JOINT RightFoot
				{
					OFFSET -2.66027 -7.30903 0.00000
					CHANNELS 3 Zrotation Yrotation Xrotation
					JOINT RightToeBase
					{
						OFFSET -0.22981 -0.63138 2.03959
						CHANNELS 3 Zrotation Yrotation Xrotation
						End Site
						{
							OFFSET -0.00000 -0.00000 1.07060
						}
					}
				}
			}
		}
	}
	JOINT LowerBack
	{
		OFFSET 0 0 0
		CHANNELS 3 Zrotation Yrotation Xrotation
		JOINT Spine
		{
			OFFSET -0.02651 1.86275 -0.11152
			CHANNELS 3 Zrotation Yrotation Xrotation
			JOINT Spine1
			{
				OFFSET 0.01019 1.86224 0.04087
				CHANNELS 3 Zrotation Yrotation Xrotation
				JOINT Neck
				{
					OFFSET 0 0 0
					CHANNELS 3 Zrotation Yrotation Xrotation
					JOINT Neck1
					{
						OFFSET -0.01926 1.80512 0.08867
						CHANNELS 3 Zrotation Yrotation Xrotation
						JOINT Head
						{
							OFFSET 0.05516 1.76451 -0.38475
							CHANNELS 3 Zrotation Yrotation Xrotation
							End Site
							{
								OFFSET 0.01592 1.82587 -0.14001
							}
						}
					}
				}
				JOINT LeftShoulder
				{
					OFFSET 0 0 0
					CHANNELS 3 Zrotation Yrotation Xrotation
					JOINT LeftArm
					{
						OFFSET 3.47116 1.51376 0.14491
						CHANNELS 3 Zrotation Yrotation Xrotation
						JOINT LeftForeArm
						{
							OFFSET 4.78095 -0.00000 0.00000
							CHANNELS 3 Zrotation Yrotation Xrotation
							JOINT LeftHand
							{
								OFFSET 3.58615 -0.00000 -0.00000
								CHANNELS 3 Zrotation Yrotation Xrotation
								JOINT LeftFingerBase
								{
									OFFSET 0 0 0
									CHANNELS 3 Zrotation Yrotation Xrotation
									JOINT LeftHandIndex1
									{
										OFFSET 0.65981 -0.00000 0.00000
										CHANNELS 3 Zrotation Yrotation Xrotation
										End Site
										{
											OFFSET 0.53196 -0.00000 0.00000
										}
									}
								}
								JOINT LThumb
								{
									OFFSET 0 0 0
									CHANNELS 3 Zrotation Yrotation Xrotation
									End Site
									{
										OFFSET 0.54008 -0.00000 0.54008
									}
								}
							}
						}
					}
				}
				JOINT RightShoulder
				{
					OFFSET 0 0 0
					CHANNELS 3 Zrotation Yrotation Xrotation
					JOINT RightArm
					{
						OFFSET -3.31725 1.61216 0.35156
						CHANNELS 3 Zrotation Yrotation Xrotation
						JOINT RightForeArm
						{
							OFFSET -4.48913 -0.00000 0.00000
							CHANNELS 3 Zrotation Yrotation Xrotation
							JOINT RightHand
							{
								OFFSET -3.70510 -0.00000 0.00000
								CHANNELS 3 Zrotation Yrotation Xrotation
								JOINT RightFingerBase
								{
									OFFSET 0 0 0
									CHANNELS 3 Zrotation Yrotation Xrotation
									JOINT RightHandIndex1
									{
										OFFSET -0.44914 -0.00000 0.00000
										CHANNELS 3 Zrotation Yrotation Xrotation
										End Site
										{
											OFFSET -0.36211 -0.00000 0.00000
										}
									}
								}
								JOINT RThumb
								{
									OFFSET 0 0 0
									CHANNELS 3 Zrotation Yrotation Xrotation
									End Site
									{
										OFFSET -0.36763 -0.00000 0.36763
									}
								}
							}
						}
					}
				}
			}
		}
	}
}
MOTION
Frames: 7
Frame Time: .0083333
-0.6095 18.7119 5.6427 0 0 0 0 0 0 -21 0 0 0 0 0 0 0 0 0 0 0 0 0 0 21 0 0 0 0 0 0 0 0 0 0 0 0 0 0 0 0 0 0 0 0 0 0 -16 0 0 21 0 0 11 0 0 0 -8 0 0 0 0 0 0 0 0 0 0 0 0 0 0 0 0 0 0 0 0 8 0 0 0 0 0 0 0 0 0 0 0 0 0 0 0 0 0
-0.6095 18.7119 5.6427 -0.9075 -0.2174 1.4044 0.0000 0.0000 0.0000 -13.3266 -6.5097 -2.9344 1.2023 6.9567 19.5871 1.3145 3.6350 -23.2393 8.5531 -16.5114 -54.5313 0.0000 0.0000 0.0000 0.0000 0.0000 0.0000 0.0000 0.0000 0.0000 -0.0000 -0.0000 0.0000 -0.0000 -0.0000 0.0000 -1.4085 -0.1713 4.3667 -0.4716 -0.3467 -2.7702 0.3322 -0.1298 -5.3143 -0.2226 -0.9094 -11.9148 2.5446 -2.1386 32.2879 0.7132 -0.6552 12.7390 0.0000 0.0000 0.0000 -92.9147 12.3732 20.1297 21.7721 -32.7185 -6.4622 -0.0000 -0.0000 6.7122 16.4820 -29.5384 -8.2990 -7.1250 0.0000 -0.0000 -8.3486 -0.3153 8.4848 0.0000 0.0000 0.0000 91.7608 -20.3149 17.4059 -26.2905 37.4942 -9.0639 0.0000 0.0000 19.9247 -5.0675 -30.8636 2.6046 7.1250 -0.0000 -0.0000 29.5319 -58.4066 -10.2561
-0.6100 18.7128 5.6444 -0.9042 -0.2117 1.4495 0.0000 0.0000 0.0000 -13.3297 -6.5580 -2.9545 1.2005 6.9517 19.5725 1.3138 3.6435 -23.2380 8.5157 -16.4858 -54.3996 0.0000 0.0000 0.0000 0.0000 0.0000 0.0000 0.0000 0.0000 0.0000 -0.0000 -0.0000 0.0000 -0.0000 -0.0000 0.0000 -1.4061 -0.1648 4.3152 -0.4652 -0.3369 -2.7925 0.3364 -0.1248 -5.3085 -0.1629 -0.9410 -11.8827 2.4883 -2.1834 32.3266 0.6750 -0.6750 12.7478 0.0000 -0.0000 0.0000 -92.9563 12.4198 19.9254 21.6831 -32.6170 -6.4142 -0.0000 -0.0000 6.5909 16.3049 -30.1637 -8.3614 -7.1250 0.0000 -0.0000 -8.5131 -0.9126 8.7441 0.0000 -0.0000 0.0000 91.7591 -20.3250 17.4842 -26.2936 37.4972 -9.0658 0.0000 0.0000 19.8750 -5.1902 -30.8896 2.6700 7.1250 -0.0000 -0.0000 29.4331 -58.4559 -10.2533
-0.6112 18.7134 5.6454 -0.8858 -0.2056 1.4807 0.0000 0.0000 0.0000 -13.3552 -6.6410 -2.9456 1.1982 6.9454 19.5536 1.3138 3.7361 -23.2855 8.5183 -16.4876 -54.4089 0.0000 0.0000 0.0000 0.0000 0.0000 0.0000 0.0000 0.0000 0.0000 -0.0000 -0.0000 0.0000 -0.0000 -0.0000 0.0000 -1.4442 -0.1637 4.2910 -0.4440 -0.3367 -2.8141 0.3796 -0.1228 -5.3169 -0.2246 -0.9547 -11.8805 2.5420 -2.2076 32.3987 0.7036 -0.6856 12.7795 -0.0000 0.0000 0.0000 -93.0559 12.5401 19.7524 21.8436 -32.7999 -6.5009 -0.0000 -0.0000 6.6857 15.8685 -29.9661 -8.0812 -7.1250 0.0000 -0.0000 -8.7454 -0.6419 8.9472 -0.0000 0.0000 0.0000 91.7343 -20.3331 17.5648 -26.3014 37.5048 -9.0705 0.0000 0.0000 19.8467 -5.3333 -30.8189 2.7382 7.1250 -0.0000 -0.0000 29.2311 -58.4263 -10.1536
-0.6126 18.7135 5.6456 -0.8711 -0.1990 1.4972 0.0000 0.0000 0.0000 -13.3699 -6.6829 -2.9459 1.1971 6.9424 19.5447 1.3148 3.7798 -23.3161 8.5320 -16.4969 -54.4570 0.0000 0.0000 0.0000 0.0000 0.0000 0.0000 0.0000 0.0000 0.0000 -0.0000 -0.0000 0.0000 -0.0000 -0.0000 0.0000 -1.4605 -0.1595 4.2778 -0.4358 -0.3316 -2.8291 0.3968 -0.1194 -5.3251 -0.2762 -0.9692 -11.8085 2.5912 -2.2310 32.3934 0.7286 -0.6965 12.7636 -0.0000 0.0000 0.0000 -93.0882 12.6174 19.6767 21.9311 -32.8990 -6.5484 -0.0000 -0.0000 6.7610 15.4104 -29.7462 -7.7875 -7.1250 0.0000 -0.0000 -8.9896 -0.3472 9.1571 -0.0000 0.0000 0.0000 91.7744 -20.3256 17.5501 -26.3220 37.5249 -9.0831 0.0000 0.0000 19.8210 -5.3132 -30.9511 2.7384 7.1250 -0.0000 -0.0000 29.3642 -58.5360 -10.2841
-0.6139 18.7133 5.6466 -0.8884 -0.1894 1.5114 0.0000 0.0000 0.0000 -13.3460 -6.7126 -2.9497 1.1970 6.9420 19.5436 1.3196 3.7469 -23.3384 8.5159 -16.4859 -54.4004 0.0000 0.0000 0.0000 0.0000 0.0000 0.0000 0.0000 0.0000 0.0000 -0.0000 -0.0000 0.0000 -0.0000 -0.0000 0.0000 -1.4515 -0.1527 4.2673 -0.4091 -0.3207 -2.8500 0.4184 -0.1136 -5.3410 -0.3289 -1.0019 -11.6894 2.6432 -2.2807 32.3589 0.7511 -0.7196 12.7261 0.0000 0.0000 0.0000 -93.0917 12.6644 19.7096 21.9398 -32.9090 -6.5531 -0.0000 -0.0000 6.7651 15.0040 -29.4814 -7.5142 -7.1250 0.0000 -0.0000 -9.2012 -0.0179 9.3251 0.0000 0.0000 0.0000 91.7977 -20.3465 17.5385 -26.3449 37.5473 -9.0970 0.0000 0.0000 19.7764 -5.2608 -31.1456 2.7266 7.1250 -0.0000 -0.0000 29.5843 -58.6921 -10.4832
-0.6148 18.7130 5.6490 -0.9297 -0.1812 1.5272 0.0000 0.0000 0.0000 -13.2976 -6.7283 -2.9573 1.1978 6.9443 19.5504 1.3212 3.7408 -23.3476 8.5167 -16.4865 -54.4033 0.0000 0.0000 0.0000 0.0000 0.0000 0.0000 0.0000 0.0000 0.0000 -0.0000 -0.0000 0.0000 -0.0000 -0.0000 0.0000 -1.4290 -0.1476 4.2477 -0.3655 -0.3101 -2.8680 0.4500 -0.1082 -5.3487 -0.4528 -1.0231 -11.6357 2.7892 -2.3293 32.3998 0.8228 -0.7375 12.7365 -0.0000 0.0000 0.0000 -93.1162 12.6993 19.7266 21.9326 -32.9008 -6.5492 -0.0000 -0.0000 6.7594 14.5653 -29.1687 -7.2174 -7.1250 0.0000 -0.0000 -9.4295 0.3626 9.4995 -0.0000 0.0000 0.0000 91.7813 -20.3525 17.5488 -26.3411 37.5435 -9.0947 0.0000 0.0000 19.7536 -5.9750 -31.1673 3.1005 7.1250 -0.0000 -0.0000 28.8938 -58.8697 -10.3364
